<mxfile host="Electron" modified="2023-10-25T05:08:57.953Z" agent="Mozilla/5.0 (Windows NT 10.0; Win64; x64) AppleWebKit/537.36 (KHTML, like Gecko) draw.io/22.0.3 Chrome/114.0.5735.289 Electron/25.8.4 Safari/537.36" etag="Ypkekg_WfJISPPK1KPNP" version="22.0.3" type="device">
  <diagram name="Page-1" id="ElkwyjphQIkkt1kdfZQa">
    <mxGraphModel dx="4403" dy="643" grid="1" gridSize="10" guides="1" tooltips="1" connect="1" arrows="1" fold="1" page="1" pageScale="1" pageWidth="3300" pageHeight="4681" math="0" shadow="0">
      <root>
        <mxCell id="0" />
        <mxCell id="1" parent="0" />
        <mxCell id="ilsJwPHpWvSuQZJWcpkL-1" value="" style="rounded=0;whiteSpace=wrap;html=1;" vertex="1" parent="1">
          <mxGeometry x="80" y="200" width="120" height="240" as="geometry" />
        </mxCell>
        <mxCell id="ilsJwPHpWvSuQZJWcpkL-2" value="" style="endArrow=classic;html=1;rounded=0;" edge="1" parent="1">
          <mxGeometry width="50" height="50" relative="1" as="geometry">
            <mxPoint y="320" as="sourcePoint" />
            <mxPoint x="80" y="320" as="targetPoint" />
          </mxGeometry>
        </mxCell>
        <mxCell id="ilsJwPHpWvSuQZJWcpkL-3" value="" style="endArrow=none;html=1;rounded=0;" edge="1" parent="1">
          <mxGeometry width="50" height="50" relative="1" as="geometry">
            <mxPoint x="200" y="220" as="sourcePoint" />
            <mxPoint x="280" y="220" as="targetPoint" />
          </mxGeometry>
        </mxCell>
        <mxCell id="ilsJwPHpWvSuQZJWcpkL-4" value="" style="triangle;whiteSpace=wrap;html=1;direction=west;" vertex="1" parent="1">
          <mxGeometry x="280" y="190" width="40" height="60" as="geometry" />
        </mxCell>
        <mxCell id="ilsJwPHpWvSuQZJWcpkL-5" value="" style="endArrow=none;html=1;rounded=0;" edge="1" parent="1">
          <mxGeometry width="50" height="50" relative="1" as="geometry">
            <mxPoint x="200" y="300" as="sourcePoint" />
            <mxPoint x="280" y="300" as="targetPoint" />
          </mxGeometry>
        </mxCell>
        <mxCell id="ilsJwPHpWvSuQZJWcpkL-6" value="" style="triangle;whiteSpace=wrap;html=1;direction=west;" vertex="1" parent="1">
          <mxGeometry x="280" y="270" width="40" height="60" as="geometry" />
        </mxCell>
        <mxCell id="ilsJwPHpWvSuQZJWcpkL-7" value="" style="endArrow=none;html=1;rounded=0;" edge="1" parent="1">
          <mxGeometry width="50" height="50" relative="1" as="geometry">
            <mxPoint x="200" y="420" as="sourcePoint" />
            <mxPoint x="280" y="420" as="targetPoint" />
          </mxGeometry>
        </mxCell>
        <mxCell id="ilsJwPHpWvSuQZJWcpkL-8" value="" style="triangle;whiteSpace=wrap;html=1;direction=west;" vertex="1" parent="1">
          <mxGeometry x="280" y="390" width="40" height="60" as="geometry" />
        </mxCell>
        <mxCell id="ilsJwPHpWvSuQZJWcpkL-9" value="" style="endArrow=none;dashed=1;html=1;dashPattern=1 3;strokeWidth=2;rounded=0;" edge="1" parent="1">
          <mxGeometry width="50" height="50" relative="1" as="geometry">
            <mxPoint x="299.5" y="380" as="sourcePoint" />
            <mxPoint x="299.5" y="340" as="targetPoint" />
          </mxGeometry>
        </mxCell>
        <mxCell id="ilsJwPHpWvSuQZJWcpkL-18" value="" style="group;direction=east;flipV=1;rotation=-180;" vertex="1" connectable="0" parent="1">
          <mxGeometry x="520" y="190" width="240" height="260" as="geometry" />
        </mxCell>
        <mxCell id="ilsJwPHpWvSuQZJWcpkL-10" value="" style="rounded=0;whiteSpace=wrap;html=1;rotation=-180;" vertex="1" parent="ilsJwPHpWvSuQZJWcpkL-18">
          <mxGeometry x="120" y="10" width="120" height="240" as="geometry" />
        </mxCell>
        <mxCell id="ilsJwPHpWvSuQZJWcpkL-11" value="" style="endArrow=none;html=1;rounded=0;" edge="1" parent="ilsJwPHpWvSuQZJWcpkL-18">
          <mxGeometry width="50" height="50" relative="1" as="geometry">
            <mxPoint x="120" y="30" as="sourcePoint" />
            <mxPoint x="40" y="30" as="targetPoint" />
          </mxGeometry>
        </mxCell>
        <mxCell id="ilsJwPHpWvSuQZJWcpkL-12" value="" style="triangle;whiteSpace=wrap;html=1;direction=west;rotation=-180;" vertex="1" parent="ilsJwPHpWvSuQZJWcpkL-18">
          <mxGeometry width="40" height="60" as="geometry" />
        </mxCell>
        <mxCell id="ilsJwPHpWvSuQZJWcpkL-13" value="" style="endArrow=none;html=1;rounded=0;" edge="1" parent="ilsJwPHpWvSuQZJWcpkL-18">
          <mxGeometry width="50" height="50" relative="1" as="geometry">
            <mxPoint x="120" y="110" as="sourcePoint" />
            <mxPoint x="40" y="110" as="targetPoint" />
          </mxGeometry>
        </mxCell>
        <mxCell id="ilsJwPHpWvSuQZJWcpkL-14" value="" style="triangle;whiteSpace=wrap;html=1;direction=west;rotation=-180;" vertex="1" parent="ilsJwPHpWvSuQZJWcpkL-18">
          <mxGeometry y="80" width="40" height="60" as="geometry" />
        </mxCell>
        <mxCell id="ilsJwPHpWvSuQZJWcpkL-15" value="" style="endArrow=none;html=1;rounded=0;" edge="1" parent="ilsJwPHpWvSuQZJWcpkL-18">
          <mxGeometry width="50" height="50" relative="1" as="geometry">
            <mxPoint x="120" y="230" as="sourcePoint" />
            <mxPoint x="40" y="230" as="targetPoint" />
          </mxGeometry>
        </mxCell>
        <mxCell id="ilsJwPHpWvSuQZJWcpkL-16" value="" style="triangle;whiteSpace=wrap;html=1;direction=west;rotation=-180;" vertex="1" parent="ilsJwPHpWvSuQZJWcpkL-18">
          <mxGeometry y="200" width="40" height="60" as="geometry" />
        </mxCell>
        <mxCell id="ilsJwPHpWvSuQZJWcpkL-17" value="" style="endArrow=none;dashed=1;html=1;dashPattern=1 3;strokeWidth=2;rounded=0;" edge="1" parent="ilsJwPHpWvSuQZJWcpkL-18">
          <mxGeometry width="50" height="50" relative="1" as="geometry">
            <mxPoint x="20" y="190" as="sourcePoint" />
            <mxPoint x="21" y="150" as="targetPoint" />
          </mxGeometry>
        </mxCell>
        <mxCell id="ilsJwPHpWvSuQZJWcpkL-19" value="" style="endArrow=classic;html=1;rounded=0;" edge="1" parent="1">
          <mxGeometry width="50" height="50" relative="1" as="geometry">
            <mxPoint x="760" y="320" as="sourcePoint" />
            <mxPoint x="840" y="320" as="targetPoint" />
          </mxGeometry>
        </mxCell>
        <mxCell id="ilsJwPHpWvSuQZJWcpkL-20" value="" style="rounded=1;whiteSpace=wrap;html=1;dashed=1;dashPattern=8 8;" vertex="1" parent="1">
          <mxGeometry x="350" y="160" width="140" height="290" as="geometry" />
        </mxCell>
        <mxCell id="ilsJwPHpWvSuQZJWcpkL-21" value="" style="shape=cylinder3;whiteSpace=wrap;html=1;boundedLbl=1;backgroundOutline=1;size=15;direction=north;" vertex="1" parent="1">
          <mxGeometry x="380" y="190" width="80" height="60" as="geometry" />
        </mxCell>
        <mxCell id="ilsJwPHpWvSuQZJWcpkL-22" value="" style="shape=cylinder3;whiteSpace=wrap;html=1;boundedLbl=1;backgroundOutline=1;size=15;direction=north;" vertex="1" parent="1">
          <mxGeometry x="380" y="280" width="80" height="40" as="geometry" />
        </mxCell>
        <mxCell id="ilsJwPHpWvSuQZJWcpkL-24" value="" style="shape=cylinder3;whiteSpace=wrap;html=1;boundedLbl=1;backgroundOutline=1;size=12;direction=north;" vertex="1" parent="1">
          <mxGeometry x="380" y="405" width="80" height="30" as="geometry" />
        </mxCell>
        <mxCell id="ilsJwPHpWvSuQZJWcpkL-26" value="" style="endArrow=none;dashed=1;html=1;dashPattern=1 3;strokeWidth=2;rounded=0;" edge="1" parent="1">
          <mxGeometry width="50" height="50" relative="1" as="geometry">
            <mxPoint x="419.79" y="380" as="sourcePoint" />
            <mxPoint x="419.79" y="340" as="targetPoint" />
          </mxGeometry>
        </mxCell>
        <mxCell id="ilsJwPHpWvSuQZJWcpkL-27" value="" style="endArrow=block;html=1;rounded=0;strokeWidth=5;endFill=1;" edge="1" parent="1">
          <mxGeometry width="50" height="50" relative="1" as="geometry">
            <mxPoint x="330" y="219.62" as="sourcePoint" />
            <mxPoint x="370" y="220" as="targetPoint" />
          </mxGeometry>
        </mxCell>
        <mxCell id="ilsJwPHpWvSuQZJWcpkL-28" value="" style="endArrow=block;html=1;rounded=0;strokeWidth=5;endFill=1;" edge="1" parent="1">
          <mxGeometry width="50" height="50" relative="1" as="geometry">
            <mxPoint x="470" y="219.62" as="sourcePoint" />
            <mxPoint x="510" y="220" as="targetPoint" />
          </mxGeometry>
        </mxCell>
        <mxCell id="ilsJwPHpWvSuQZJWcpkL-29" value="" style="endArrow=block;html=1;rounded=0;strokeWidth=3;endFill=1;" edge="1" parent="1">
          <mxGeometry width="50" height="50" relative="1" as="geometry">
            <mxPoint x="330" y="299.62" as="sourcePoint" />
            <mxPoint x="370" y="300" as="targetPoint" />
          </mxGeometry>
        </mxCell>
        <mxCell id="ilsJwPHpWvSuQZJWcpkL-30" value="" style="endArrow=block;html=1;rounded=0;strokeWidth=3;endFill=1;" edge="1" parent="1">
          <mxGeometry width="50" height="50" relative="1" as="geometry">
            <mxPoint x="470" y="299.62" as="sourcePoint" />
            <mxPoint x="510" y="300" as="targetPoint" />
          </mxGeometry>
        </mxCell>
        <mxCell id="ilsJwPHpWvSuQZJWcpkL-31" value="" style="endArrow=block;html=1;rounded=0;strokeWidth=1;endFill=1;" edge="1" parent="1">
          <mxGeometry width="50" height="50" relative="1" as="geometry">
            <mxPoint x="330" y="419.62" as="sourcePoint" />
            <mxPoint x="370" y="420" as="targetPoint" />
          </mxGeometry>
        </mxCell>
        <mxCell id="ilsJwPHpWvSuQZJWcpkL-32" value="" style="endArrow=block;html=1;rounded=0;strokeWidth=1;endFill=1;" edge="1" parent="1">
          <mxGeometry width="50" height="50" relative="1" as="geometry">
            <mxPoint x="470" y="419.62" as="sourcePoint" />
            <mxPoint x="510" y="420" as="targetPoint" />
          </mxGeometry>
        </mxCell>
      </root>
    </mxGraphModel>
  </diagram>
</mxfile>
